<?xml version="1.0" encoding="UTF-8"?>
<svg id="Layer_1" xmlns="http://www.w3.org/2000/svg" version="1.1" viewBox="0 0 512 512">
  <!-- Generator: Adobe Illustrator 29.7.1, SVG Export Plug-In . SVG Version: 2.1.1 Build 8)  -->
  <rect x="208.97" y="134.57" width="93.07" height="93.07" transform="translate(202.89 -127.62) rotate(45)" fill="#22c98a"/>
  <rect x="208.97" y="266.05" width="93.07" height="93.07" transform="translate(295.87 -89.11) rotate(45)" fill="#22c98a"/>
  <path d="M55,22.26h402c30.36,0,55,24.64,55,55v37.92H0v-37.92C0,46.91,24.64,22.26,55,22.26Z" fill="#22c98a"/>
  <path d="M0,396.79h512v37.92c0,30.36-24.64,55-55,55H55c-30.36,0-55-24.64-55-55v-37.92h0Z" fill="#082645"/>
  <path d="M326.05,303.32h228.97c27.6,0,50,22.4,50,50v42.92h-278.97v-92.92h0Z" transform="translate(815.32 -115.76) rotate(90)" fill="#082645"/>
  <path d="M-93.03,303.32H185.95v37.92c0,30.36-24.64,55-55,55H-93.03v-92.92h0Z" transform="translate(396.24 303.32) rotate(90)" fill="#082645"/>
</svg>